<svg width="115" height="100" viewBox="0 0 115 100" fill="none" xmlns="http://www.w3.org/2000/svg">
<mask id="path-1-inside-1_1713_41510" fill="white">
<path d="M38.0957 0C46.3579 0.000398126 54.3168 9.52344 62.5789 9.52344H95.2383C105.758 9.52344 114.286 18.0516 114.286 28.5713V80.9521C114.286 91.4719 105.758 100 95.2383 100H19.0479C8.52814 100 0 91.4719 0 80.9521V19.0479C0 8.52814 8.52814 0 19.0479 0H38.0957Z"/>
</mask>
<path d="M38.0957 0C46.3579 0.000398126 54.3168 9.52344 62.5789 9.52344H95.2383C105.758 9.52344 114.286 18.0516 114.286 28.5713V80.9521C114.286 91.4719 105.758 100 95.2383 100H19.0479C8.52814 100 0 91.4719 0 80.9521V19.0479C0 8.52814 8.52814 0 19.0479 0H38.0957Z" fill="#6941C6"/>
<path d="M38.0957 0L38.0958 -2.38095H38.0957V0ZM114.286 28.5713H116.667V28.5713L114.286 28.5713ZM62.5789 9.52344V11.9044H95.2383V9.52344V7.14249H62.5789V9.52344ZM95.2383 9.52344V11.9044C104.443 11.9044 111.905 19.3666 111.905 28.5713L114.286 28.5713L116.667 28.5713C116.667 16.7367 107.073 7.14249 95.2383 7.14249V9.52344ZM114.286 28.5713H111.905V80.9521H114.286H116.667V28.5713H114.286ZM114.286 80.9521H111.905C111.905 90.1569 104.443 97.619 95.2383 97.619V100V102.381C107.073 102.381 116.667 92.7868 116.667 80.9521H114.286ZM95.2383 100V97.619H19.0479V100V102.381H95.2383V100ZM19.0479 100V97.619C9.84311 97.619 2.38095 90.1569 2.38095 80.9521H0H-2.38095C-2.38095 92.7868 7.21318 102.381 19.0479 102.381V100ZM0 80.9521H2.38095V19.0479H0H-2.38095V80.9521H0ZM0 19.0479H2.38095C2.38095 9.84311 9.84311 2.38095 19.0479 2.38095V0V-2.38095C7.21318 -2.38095 -2.38095 7.21318 -2.38095 19.0479H0ZM19.0479 0V2.38095H38.0957V0V-2.38095H19.0479V0ZM38.0957 0L38.0956 2.38095C41.4506 2.38111 44.9113 4.33726 49.1319 6.81512C53.0219 9.0989 57.6718 11.9044 62.5789 11.9044V9.52344V7.14249C59.2239 7.14249 55.7633 5.18646 51.5428 2.70862C47.6528 0.424853 43.0029 -2.38072 38.0958 -2.38095L38.0957 0Z" fill="url(#paint0_linear_1713_41510)" mask="url(#path-1-inside-1_1713_41510)"/>
<rect x="7.14307" y="16.666" width="100" height="76.1905" rx="9.52381" fill="white"/>
<rect x="1.19048" y="24.9991" width="111.905" height="73.8095" rx="17.8571" fill="#7F56D9" stroke="url(#paint1_linear_1713_41510)" stroke-width="2.38095"/>
<rect y="23.8086" width="114.286" height="76.1905" rx="19.0476" fill="url(#paint2_linear_1713_41510)" fill-opacity="0.2"/>
<defs>
<linearGradient id="paint0_linear_1713_41510" x1="57.1431" y1="-2.12874e-06" x2="57.1431" y2="100" gradientUnits="userSpaceOnUse">
<stop stop-color="white" stop-opacity="0.12"/>
<stop offset="1" stop-color="white" stop-opacity="0"/>
</linearGradient>
<linearGradient id="paint1_linear_1713_41510" x1="57.1429" y1="23.8086" x2="57.1429" y2="99.9991" gradientUnits="userSpaceOnUse">
<stop stop-color="white" stop-opacity="0.12"/>
<stop offset="1" stop-color="white" stop-opacity="0"/>
</linearGradient>
<linearGradient id="paint2_linear_1713_41510" x1="7.14286" y1="29.761" x2="109.524" y2="94.0467" gradientUnits="userSpaceOnUse">
<stop stop-color="white"/>
<stop offset="1" stop-color="white" stop-opacity="0"/>
</linearGradient>
</defs>
</svg>
