<svg width="14" height="14" viewBox="0 0 14 14" fill="none" xmlns="http://www.w3.org/2000/svg">
<path d="M11.6673 7.58343C11.6673 10.5001 9.62565 11.9584 7.19898 12.8043C7.07191 12.8473 6.93388 12.8453 6.80815 12.7984C4.37565 11.9584 2.33398 10.5001 2.33398 7.58343V3.5001C2.33398 3.34539 2.39544 3.19702 2.50484 3.08762C2.61424 2.97822 2.76261 2.91677 2.91732 2.91677C4.08398 2.91677 5.54232 2.21677 6.55732 1.3301C6.6809 1.22452 6.83811 1.1665 7.00065 1.1665C7.16319 1.1665 7.3204 1.22452 7.44398 1.3301C8.46482 2.2226 9.91732 2.91677 11.084 2.91677C11.2387 2.91677 11.3871 2.97822 11.4965 3.08762C11.6059 3.19702 11.6673 3.34539 11.6673 3.5001V7.58343Z" stroke="white" stroke-width="1.16667" stroke-linecap="round" stroke-linejoin="round"/>
</svg>
