<svg width="357" height="221" viewBox="0 0 357 221" fill="none" xmlns="http://www.w3.org/2000/svg">
<g opacity="0.25">
<path d="M0 176.282C0 78.9242 78.9243 0 176.282 0L180.479 0C277.837 0 356.762 78.9242 356.762 176.282C356.762 200.622 337.031 220.353 312.691 220.353H44.0706C19.7311 220.353 0 200.622 0 176.282Z" fill="url(#paint0_linear_2425_9915)"/>
</g>
<g opacity="0.25">
<path d="M69.9531 113.675C69.9531 68.2795 106.753 31.4795 152.148 31.4795C197.543 31.4795 234.343 68.2795 234.343 113.675V162.992C234.343 181.15 219.623 195.87 201.465 195.87H102.831C84.6731 195.87 69.9531 181.15 69.9531 162.992V113.675Z" fill="url(#paint1_linear_2425_9915)"/>
</g>
<defs>
<linearGradient id="paint0_linear_2425_9915" x1="178.381" y1="0" x2="178.381" y2="220.353" gradientUnits="userSpaceOnUse">
<stop stop-color="#EC97CF"/>
<stop offset="1" stop-color="#EC97CF" stop-opacity="0.4"/>
</linearGradient>
<linearGradient id="paint1_linear_2425_9915" x1="152.148" y1="31.4795" x2="152.148" y2="195.87" gradientUnits="userSpaceOnUse">
<stop stop-color="#EC97CF"/>
<stop offset="1" stop-color="#EC97CF" stop-opacity="0.4"/>
</linearGradient>
</defs>
</svg>
