<svg width="135" height="54" viewBox="0 0 135 54" fill="none" xmlns="http://www.w3.org/2000/svg">
<path d="M15.0639 40.376C13.1972 40.376 11.5172 39.9093 10.0239 38.976C8.53055 38.0053 7.35455 36.6986 6.49588 35.056C5.63722 33.4133 5.20788 31.5653 5.20788 29.512V2.79998C5.20788 1.97864 5.46922 1.30664 5.99188 0.783976C6.51455 0.261309 7.18655 -2.43187e-05 8.00788 -2.43187e-05C8.82922 -2.43187e-05 9.50122 0.261309 10.0239 0.783976C10.5466 1.30664 10.8079 1.97864 10.8079 2.79998V29.512C10.8079 31.0053 11.2186 32.256 12.0399 33.264C12.8612 34.272 13.8692 34.776 15.0639 34.776H16.9679C17.6399 34.776 18.1999 35.0373 18.6479 35.56C19.1332 36.0826 19.3759 36.7546 19.3759 37.576C19.3759 38.3973 19.0586 39.0693 18.4239 39.592C17.8265 40.1146 17.0425 40.376 16.0719 40.376H15.0639ZM2.63188 15.68C1.84788 15.68 1.21322 15.456 0.727883 15.008C0.24255 14.56 -0.000117108 14 -0.000117108 13.328C-0.000117108 12.5813 0.24255 11.984 0.727883 11.536C1.21322 11.088 1.84788 10.864 2.63188 10.864H15.5679C16.3519 10.864 16.9866 11.088 17.4719 11.536C17.9572 11.984 18.1999 12.5813 18.1999 13.328C18.1999 14 17.9572 14.56 17.4719 15.008C16.9866 15.456 16.3519 15.68 15.5679 15.68H2.63188ZM40.2844 40.6C37.5591 40.6 35.1138 39.928 32.9484 38.584C30.7831 37.2026 29.0658 35.3546 27.7964 33.04C26.5644 30.688 25.9484 28.0373 25.9484 25.088C25.9484 22.1386 26.6204 19.488 27.9644 17.136C29.3458 14.784 31.1938 12.936 33.5084 11.592C35.8604 10.2106 38.4924 9.51998 41.4044 9.51998C44.3164 9.51998 46.9298 10.2106 49.2444 11.592C51.5591 12.936 53.3884 14.784 54.7324 17.136C56.1138 19.488 56.8044 22.1386 56.8044 25.088H54.6204C54.6204 28.0373 53.9858 30.688 52.7164 33.04C51.4844 35.3546 49.7858 37.2026 47.6204 38.584C45.4551 39.928 43.0098 40.6 40.2844 40.6ZM41.4044 35.56C43.3084 35.56 45.0071 35.112 46.5004 34.216C47.9938 33.2826 49.1698 32.032 50.0284 30.464C50.8871 28.8586 51.3164 27.0666 51.3164 25.088C51.3164 23.072 50.8871 21.28 50.0284 19.712C49.1698 18.1066 47.9938 16.856 46.5004 15.96C45.0071 15.0266 43.3084 14.56 41.4044 14.56C39.5378 14.56 37.8391 15.0266 36.3084 15.96C34.8151 16.856 33.6204 18.1066 32.7244 19.712C31.8658 21.28 31.4364 23.072 31.4364 25.088C31.4364 27.0666 31.8658 28.8586 32.7244 30.464C33.6204 32.032 34.8151 33.2826 36.3084 34.216C37.8391 35.112 39.5378 35.56 41.4044 35.56ZM53.9484 40.432C53.1271 40.432 52.4364 40.1706 51.8764 39.648C51.3538 39.088 51.0924 38.3973 51.0924 37.576V29.008L52.1564 23.072L56.8044 25.088V37.576C56.8044 38.3973 56.5244 39.088 55.9644 39.648C55.4418 40.1706 54.7698 40.432 53.9484 40.432ZM69.2815 53.48C68.4602 53.48 67.7695 53.2 67.2095 52.64C66.6868 52.1173 66.4255 51.4453 66.4255 50.624V25.088C66.4628 22.1386 67.1535 19.488 68.4975 17.136C69.8415 14.784 71.6708 12.936 73.9855 11.592C76.3002 10.2106 78.9135 9.51998 81.8255 9.51998C84.7748 9.51998 87.4068 10.2106 89.7215 11.592C92.0362 12.936 93.8655 14.784 95.2095 17.136C96.5908 19.488 97.2815 22.1386 97.2815 25.088C97.2815 28.0373 96.6468 30.688 95.3775 33.04C94.1455 35.3546 92.4468 37.2026 90.2815 38.584C88.1162 39.928 85.6708 40.6 82.9455 40.6C80.7428 40.6 78.7082 40.152 76.8415 39.256C75.0122 38.3226 73.4442 37.072 72.1375 35.504V50.624C72.1375 51.4453 71.8762 52.1173 71.3535 52.64C70.8308 53.2 70.1402 53.48 69.2815 53.48ZM81.8255 35.56C83.7295 35.56 85.4282 35.112 86.9215 34.216C88.4148 33.2826 89.5908 32.032 90.4495 30.464C91.3455 28.8586 91.7935 27.0666 91.7935 25.088C91.7935 23.072 91.3455 21.28 90.4495 19.712C89.5908 18.1066 88.4148 16.856 86.9215 15.96C85.4282 15.0266 83.7295 14.56 81.8255 14.56C79.9588 14.56 78.2602 15.0266 76.7295 15.96C75.2362 16.856 74.0602 18.1066 73.2015 19.712C72.3428 21.28 71.9135 23.072 71.9135 25.088C71.9135 27.0666 72.3428 28.8586 73.2015 30.464C74.0602 32.032 75.2362 33.2826 76.7295 34.216C78.2602 35.112 79.9588 35.56 81.8255 35.56ZM121.313 40.6C118.214 40.6 115.451 39.9466 113.025 38.64C110.635 37.296 108.75 35.4666 107.369 33.152C106.025 30.8 105.353 28.112 105.353 25.088C105.353 22.0266 105.987 19.3386 107.257 17.024C108.563 14.672 110.355 12.8426 112.633 11.536C114.91 10.192 117.523 9.51998 120.473 9.51998C123.385 9.51998 125.886 10.1733 127.977 11.48C130.067 12.7493 131.654 14.5226 132.737 16.8C133.857 19.04 134.417 21.6346 134.417 24.584C134.417 25.2933 134.174 25.8906 133.689 26.376C133.203 26.824 132.587 27.048 131.841 27.048H109.273V22.568H131.673L129.377 24.136C129.339 22.2693 128.966 20.608 128.257 19.152C127.547 17.6586 126.539 16.4826 125.233 15.624C123.926 14.7653 122.339 14.336 120.473 14.336C118.345 14.336 116.515 14.8026 114.985 15.736C113.491 16.6693 112.353 17.9573 111.569 19.6C110.785 21.2053 110.393 23.0346 110.393 25.088C110.393 27.1413 110.859 28.9706 111.793 30.576C112.726 32.1813 114.014 33.4506 115.657 34.384C117.299 35.3173 119.185 35.784 121.313 35.784C122.47 35.784 123.646 35.5786 124.841 35.168C126.073 34.72 127.062 34.216 127.809 33.656C128.369 33.2453 128.966 33.04 129.601 33.04C130.273 33.0026 130.851 33.1893 131.337 33.6C131.971 34.16 132.307 34.776 132.345 35.448C132.382 36.12 132.083 36.6986 131.449 37.184C130.179 38.192 128.593 39.0133 126.689 39.648C124.822 40.2826 123.03 40.6 121.313 40.6Z" fill="#0FA6FF"/>
</svg>
