<svg width="116" height="46" viewBox="0 0 116 46" fill="none" xmlns="http://www.w3.org/2000/svg">
<path d="M12.9111 34.6079C11.3111 34.6079 9.87106 34.2079 8.59106 33.4079C7.31106 32.5759 6.30306 31.4559 5.56706 30.0479C4.83106 28.6399 4.46306 27.0559 4.46306 25.2959V2.39991C4.46306 1.69591 4.68706 1.11991 5.13506 0.671909C5.58306 0.223909 6.15906 -9.05991e-05 6.86306 -9.05991e-05C7.56706 -9.05991e-05 8.14306 0.223909 8.59106 0.671909C9.03906 1.11991 9.26306 1.69591 9.26306 2.39991V25.2959C9.26306 26.5759 9.61506 27.6479 10.3191 28.5119C11.0231 29.3759 11.8871 29.8079 12.9111 29.8079H14.5431C15.1191 29.8079 15.5991 30.0319 15.9831 30.4799C16.3991 30.9279 16.6071 31.5039 16.6071 32.2079C16.6071 32.9119 16.3351 33.4879 15.7911 33.9359C15.2791 34.3839 14.6071 34.6079 13.7751 34.6079H12.9111ZM2.25506 13.4399C1.58306 13.4399 1.03906 13.2479 0.623062 12.8639C0.207063 12.4799 -0.000937432 11.9999 -0.000937432 11.4239C-0.000937432 10.7839 0.207063 10.2719 0.623062 9.88791C1.03906 9.50391 1.58306 9.31191 2.25506 9.31191H13.3431C14.0151 9.31191 14.5591 9.50391 14.9751 9.88791C15.3911 10.2719 15.5991 10.7839 15.5991 11.4239C15.5991 11.9999 15.3911 12.4799 14.9751 12.8639C14.5591 13.2479 14.0151 13.4399 13.3431 13.4399H2.25506ZM34.5287 34.7999C32.1927 34.7999 30.0967 34.2239 28.2407 33.0719C26.3847 31.8879 24.9127 30.3039 23.8247 28.3199C22.7687 26.3039 22.2407 24.0319 22.2407 21.5039C22.2407 18.9759 22.8167 16.7039 23.9687 14.6879C25.1527 12.6719 26.7367 11.0879 28.7207 9.93591C30.7367 8.75191 32.9927 8.15991 35.4887 8.15991C37.9847 8.15991 40.2247 8.75191 42.2087 9.93591C44.1927 11.0879 45.7607 12.6719 46.9127 14.6879C48.0967 16.7039 48.6887 18.9759 48.6887 21.5039H46.8167C46.8167 24.0319 46.2727 26.3039 45.1847 28.3199C44.1287 30.3039 42.6727 31.8879 40.8167 33.0719C38.9607 34.2239 36.8647 34.7999 34.5287 34.7999ZM35.4887 30.4799C37.1207 30.4799 38.5767 30.0959 39.8567 29.3279C41.1367 28.5279 42.1447 27.4559 42.8807 26.1119C43.6167 24.7359 43.9847 23.1999 43.9847 21.5039C43.9847 19.7759 43.6167 18.2399 42.8807 16.8959C42.1447 15.5199 41.1367 14.4479 39.8567 13.6799C38.5767 12.8799 37.1207 12.4799 35.4887 12.4799C33.8887 12.4799 32.4327 12.8799 31.1207 13.6799C29.8407 14.4479 28.8167 15.5199 28.0487 16.8959C27.3127 18.2399 26.9447 19.7759 26.9447 21.5039C26.9447 23.1999 27.3127 24.7359 28.0487 26.1119C28.8167 27.4559 29.8407 28.5279 31.1207 29.3279C32.4327 30.0959 33.8887 30.4799 35.4887 30.4799ZM46.2407 34.6559C45.5367 34.6559 44.9447 34.4319 44.4647 33.9839C44.0167 33.5039 43.7927 32.9119 43.7927 32.2079V24.8639L44.7047 19.7759L48.6887 21.5039V32.2079C48.6887 32.9119 48.4487 33.5039 47.9687 33.9839C47.5207 34.4319 46.9447 34.6559 46.2407 34.6559ZM59.3833 45.8399C58.6793 45.8399 58.0873 45.5999 57.6073 45.1199C57.1593 44.6719 56.9353 44.0959 56.9353 43.3919V21.5039C56.9673 18.9759 57.5593 16.7039 58.7113 14.6879C59.8633 12.6719 61.4313 11.0879 63.4153 9.93591C65.3993 8.75191 67.6393 8.15991 70.1353 8.15991C72.6633 8.15991 74.9193 8.75191 76.9033 9.93591C78.8873 11.0879 80.4553 12.6719 81.6073 14.6879C82.7913 16.7039 83.3833 18.9759 83.3833 21.5039C83.3833 24.0319 82.8393 26.3039 81.7513 28.3199C80.6953 30.3039 79.2393 31.8879 77.3833 33.0719C75.5273 34.2239 73.4313 34.7999 71.0953 34.7999C69.2073 34.7999 67.4633 34.4159 65.8633 33.6479C64.2953 32.8479 62.9513 31.7759 61.8313 30.4319V43.3919C61.8313 44.0959 61.6073 44.6719 61.1593 45.1199C60.7113 45.5999 60.1193 45.8399 59.3833 45.8399ZM70.1353 30.4799C71.7673 30.4799 73.2233 30.0959 74.5033 29.3279C75.7833 28.5279 76.7913 27.4559 77.5273 26.1119C78.2953 24.7359 78.6793 23.1999 78.6793 21.5039C78.6793 19.7759 78.2953 18.2399 77.5273 16.8959C76.7913 15.5199 75.7833 14.4479 74.5033 13.6799C73.2233 12.8799 71.7673 12.4799 70.1353 12.4799C68.5353 12.4799 67.0793 12.8799 65.7673 13.6799C64.4873 14.4479 63.4793 15.5199 62.7433 16.8959C62.0073 18.2399 61.6393 19.7759 61.6393 21.5039C61.6393 23.1999 62.0073 24.7359 62.7433 26.1119C63.4793 27.4559 64.4873 28.5279 65.7673 29.3279C67.0793 30.0959 68.5353 30.4799 70.1353 30.4799ZM103.981 34.7999C101.325 34.7999 98.9573 34.2399 96.8773 33.1199C94.8293 31.9679 93.2133 30.3999 92.0293 28.4159C90.8773 26.3999 90.3013 24.0959 90.3013 21.5039C90.3013 18.8799 90.8453 16.5759 91.9333 14.5919C93.0533 12.5759 94.5893 11.0079 96.5413 9.88791C98.4933 8.73591 100.733 8.15991 103.261 8.15991C105.757 8.15991 107.901 8.71991 109.693 9.83991C111.485 10.9279 112.845 12.4479 113.773 14.3999C114.733 16.3199 115.213 18.5439 115.213 21.0719C115.213 21.6799 115.005 22.1919 114.589 22.6079C114.173 22.9919 113.645 23.1839 113.005 23.1839H93.6613V19.3439H112.861L110.893 20.6879C110.861 19.0879 110.541 17.6639 109.933 16.4159C109.325 15.1359 108.461 14.1279 107.341 13.3919C106.221 12.6559 104.861 12.2879 103.261 12.2879C101.437 12.2879 99.8693 12.6879 98.5573 13.4879C97.2773 14.2879 96.3013 15.3919 95.6293 16.7999C94.9573 18.1759 94.6213 19.7439 94.6213 21.5039C94.6213 23.2639 95.0213 24.8319 95.8213 26.2079C96.6213 27.5839 97.7253 28.6719 99.1333 29.4719C100.541 30.2719 102.157 30.6719 103.981 30.6719C104.973 30.6719 105.981 30.4959 107.005 30.1439C108.061 29.7599 108.909 29.3279 109.549 28.8479C110.029 28.4959 110.541 28.3199 111.085 28.3199C111.661 28.2879 112.157 28.4479 112.573 28.7999C113.117 29.2799 113.405 29.8079 113.437 30.3839C113.469 30.9599 113.213 31.4559 112.669 31.8719C111.581 32.7359 110.221 33.4399 108.589 33.9839C106.989 34.5279 105.453 34.7999 103.981 34.7999Z" fill="#0FA6FF"/>
</svg>
